<svg width="65" height="65" fill="none" xmlns="http://www.w3.org/2000/svg"><path d="M25.054 12.171V9.75h11.392v2.421c0 1.782 2.154 2.674 3.414 1.414l1.712-1.712 8.055 8.055-1.712 1.712c-1.26 1.26-.368 3.414 1.414 3.414h2.421v11.392h-2.421c-1.782 0-2.674 2.154-1.414 3.414l1.712 1.712-8.055 8.055-1.712-1.712c-1.26-1.26-3.414-.368-3.414 1.414v2.421H25.054v-2.421c0-1.782-2.154-2.674-3.414-1.414l-1.712 1.712-8.055-8.055 1.712-1.712c1.26-1.26.368-3.414-1.414-3.414H9.75V25.054h2.421c1.782 0 2.674-2.154 1.414-3.414l-1.712-1.712 8.055-8.055 1.712 1.712c1.26 1.26 3.414.368 3.414-1.414Z" stroke="#000" stroke-width="2"/><circle cx="30.5" cy="30.5" r="12.5" fill="#0158DB"/><path d="M21.584 31.893a1.02 1.02 0 0 1 0-1.844l4.4-2.078a.714.714 0 1 1 .591 1.299l-3.798 1.666c-.012.005-.025-.009-.018-.02.007-.014.027-.008.027.006v.098c0 .014-.02.02-.027.007-.007-.012.006-.026.018-.02l3.8 1.665a.714.714 0 1 1-.591 1.299l-4.402-2.078ZM31.773 25c.44 0 .762.417.65.844l-2.542 9.655a.673.673 0 1 1-1.3-.343l2.541-9.655a.673.673 0 0 1 .65-.501ZM40 30.971c0 .395-.227.753-.584.922l-4.4 2.078a.714.714 0 1 1-.591-1.299l3.798-1.666c.012-.005.025.009.018.02-.007.014-.027.008-.027-.006v-.098c0-.014.02-.02.027-.007.007.012-.006.026-.018.02l-3.8-1.665a.714.714 0 1 1 .591-1.299l4.402 2.078c.357.169.584.528.584.922Z" fill="#fff"/><path fill-rule="evenodd" clip-rule="evenodd" d="M30.5 1.718C14.604 1.718 1.718 14.604 1.718 30.5c0 5.197 1.377 10.07 3.785 14.277a.88.88 0 0 1-.295 1.188.84.84 0 0 1-1.17-.29A30.364 30.364 0 0 1 0 30.5C0 13.655 13.655 0 30.5 0a30.362 30.362 0 0 1 16.075 4.575.84.84 0 0 1 .249 1.18.88.88 0 0 1-1.197.254A28.643 28.643 0 0 0 30.5 1.719ZM59.282 30.5c0-6.741-2.317-12.94-6.199-17.845a.387.387 0 0 1 .233-.622.38.38 0 0 0 .27-.2l.036-.067a.525.525 0 0 1 .88-.088A30.373 30.373 0 0 1 61 30.5C61 47.345 47.345 61 30.5 61a30.382 30.382 0 0 1-19.685-7.203.84.84 0 0 1-.076-1.204.88.88 0 0 1 1.222-.076A28.663 28.663 0 0 0 30.5 59.282c15.896 0 28.782-12.886 28.782-28.782Z" fill="#000"/><path d="M55 10.5a2.5 2.5 0 1 1-5 0 2.5 2.5 0 0 1 5 0Z" stroke="#0158DB" stroke-width="2"/><circle cx="6.5" cy="47.5" r="2.5" stroke="#0158DB" stroke-width="2"/></svg>