<svg width="48" height="37" fill="none" xmlns="http://www.w3.org/2000/svg"><path fill-rule="evenodd" clip-rule="evenodd" d="M0 4a4 4 0 0 1 4-4h36a4 4 0 0 1 4 4v14.5a1 1 0 1 1-2 0V4a2 2 0 0 0-2-2H4a2 2 0 0 0-2 2v24a2 2 0 0 0 2 2h25a1 1 0 1 1 0 2H4a4 4 0 0 1-4-4V4Z" fill="#000"/><path fill-rule="evenodd" clip-rule="evenodd" d="M33.329 20.863a1 1 0 0 1-1.451 0l-4.46-4.702a1 1 0 0 1 0-1.377l.018-.019a1 1 0 0 1 1.451 0l4.46 4.703a1 1 0 0 1 0 1.376l-.018.02ZM16.47 14.784a1 1 0 0 1 0 1.377L3.122 30.235a1 1 0 0 1-1.45 0l-.02-.02a1 1 0 0 1 0-1.376l13.35-14.074a1 1 0 0 1 1.45 0l.019.02Z" fill="#000"/><path d="m2 2 20 18L42 2" stroke="#000" stroke-width="2"/><circle cx="39.4" cy="28.4" r="8.4" fill="#0158DB"/><path fill-rule="evenodd" clip-rule="evenodd" d="M36.412 28.602a.5.5 0 0 0-.707-.006l-.522.511a.5.5 0 0 0-.006.707l2.42 2.466a.5.5 0 0 0 .707.006l6.15-6.036a.5.5 0 0 0 .006-.707l-.418-.425a.5.5 0 0 0-.706-.007l-4.915 4.824a.5.5 0 0 1-.707-.006l-1.302-1.327Z" fill="#fff"/></svg>