<svg id="Layer_1" data-name="Layer 1" xmlns="http://www.w3.org/2000/svg" viewBox="0 0 500 500"><defs><style>.cls-1{fill:#ffffff;}</style></defs><path class="cls-1" d="M184.43,367.88c0,1.6-1.84,2.88-4.15,2.88-2.64.23-4.48-1-4.48-2.88,0-1.6,1.84-2.88,4.16-2.88C182.35,364.77,184.43,366,184.43,367.88Zm-24.84-3.59c-.56,1.59,1,3.43,3.44,3.91,2.07.8,4.47,0,4.95-1.6s-1-3.43-3.44-4.15c-2.07-.56-4.39.24-4.95,1.84Zm35.3-1.36c-2.31.56-3.91,2.07-3.67,3.91.24,1.6,2.31,2.64,4.71,2.08s3.91-2.08,3.67-3.68S197.21,362.69,194.89,362.93Zm52.55-306C136.67,56.88,51.93,141,51.93,251.75c0,88.58,55.75,164.37,135.37,191,10.23,1.84,13.82-4.47,13.82-9.66,0-4.95-.24-32.27-.24-49,0,0-55.9,12-67.64-23.8,0,0-9.11-23.24-22.21-29.23,0,0-18.29-12.54,1.28-12.3a42.16,42.16,0,0,1,30.83,20.61c17.49,30.83,46.8,22,58.22,16.69,1.84-12.78,7-21.64,12.78-26.92-44.65-4.95-89.69-11.42-89.69-88.25,0-22,6.07-33,18.85-47-2.08-5.19-8.87-26.59,2.07-54.23,16.7-5.19,55.11,21.57,55.11,21.57a188.67,188.67,0,0,1,100.32,0s38.41-26.84,55.1-21.57c10.94,27.72,4.16,49,2.08,54.23,12.78,14.14,20.6,25.16,20.6,47,0,77.07-47,83.22-91.68,88.25,7.35,6.31,13.58,18.29,13.58,37.06,0,26.92-.24,60.22-.24,66.77,0,5.19,3.67,11.5,13.81,9.66,79.87-26.51,134-102.3,134-190.88C448.07,141,358.22,56.88,247.44,56.88ZM129.56,332.34c-1,.8-.8,2.63.56,4.15,1.28,1.28,3.12,1.84,4.15.8,1-.8.8-2.63-.56-4.15C132.44,331.86,130.6,331.3,129.56,332.34Zm-8.62-6.47c-.56,1,.24,2.32,1.83,3.11a2.39,2.39,0,0,0,3.44-.55c.56-1-.24-2.32-1.84-3.12C122.77,324.83,121.49,325.07,120.94,325.87Zm25.87,28.43c-1.28,1-.8,3.44,1,4.95,1.84,1.84,4.15,2.08,5.19.8,1-1,.56-3.43-1-4.95C150.25,353.26,147.85,353,146.81,354.3Zm-9.1-11.74c-1.28.8-1.28,2.88,0,4.71s3.43,2.64,4.47,1.84c1.28-1,1.28-3.11,0-4.95-1.12-1.84-3.19-2.64-4.47-1.6Z"/></svg>