<svg id="Layer_1" data-name="Layer 1" xmlns="http://www.w3.org/2000/svg" viewBox="0 0 500 500"><defs><style>.cls-1{fill:#010101;}</style></defs><path class="cls-1" d="M250,151a99,99,0,1,0,99,99A98.87,98.87,0,0,0,250,151Zm0,163.41A64.38,64.38,0,1,1,314.42,250,64.5,64.5,0,0,1,250,314.38ZM376.22,146.92a23.1,23.1,0,1,1-23.1-23.1A23,23,0,0,1,376.22,146.92Zm65.59,23.44c-1.47-30.94-8.54-58.34-31.2-80.92s-50-29.65-80.93-31.2c-31.89-1.81-127.47-1.81-159.36,0-30.85,1.46-58.26,8.53-80.93,31.11s-29.64,50-31.2,80.93c-1.81,31.89-1.81,127.47,0,159.36,1.47,30.94,8.54,58.34,31.2,80.92s50,29.65,80.93,31.2c31.89,1.81,127.47,1.81,159.36,0,30.94-1.46,58.35-8.53,80.93-31.2s29.64-50,31.2-80.92c1.81-31.89,1.81-127.39,0-159.28Zm-41.2,193.49a65.2,65.2,0,0,1-36.72,36.72c-25.42,10.08-85.75,7.75-113.85,7.75s-88.51,2.24-113.85-7.75a65.21,65.21,0,0,1-36.71-36.72C89.39,338.43,91.72,278.1,91.72,250s-2.24-88.51,7.76-113.85a65.18,65.18,0,0,1,36.71-36.72C161.62,89.35,222,91.68,250,91.68s88.52-2.24,113.85,7.75a65.2,65.2,0,0,1,36.72,36.72c10.08,25.42,7.76,85.75,7.76,113.85S410.69,338.51,400.61,363.85Z"/></svg>