<svg id="Layer_1" data-name="Layer 1" xmlns="http://www.w3.org/2000/svg" viewBox="0 0 500 500"><defs><style>.cls-1{fill:#000000;}</style></defs><path class="cls-1" d="M415.61,56.88H84.31A27.73,27.73,0,0,0,56.79,84.74v330.7A27.73,27.73,0,0,0,84.31,443.3h331.3a27.8,27.8,0,0,0,27.6-27.86V84.74A27.8,27.8,0,0,0,415.61,56.88Zm-242,331.21H116.31V203.68h57.36V388.09ZM144.94,178.5a33.21,33.21,0,1,1,33.21-33.21A33.22,33.22,0,0,1,144.94,178.5ZM388.26,388.09H331v-89.7c0-21.39-.43-48.91-29.76-48.91-29.84,0-34.41,23.29-34.41,47.36v91.25H209.55V203.68h54.94v25.19h.78c7.67-14.49,26.39-29.76,54.25-29.76,58,0,68.74,38.21,68.74,87.89Z"/></svg>