<svg width="49" height="41" fill="none" xmlns="http://www.w3.org/2000/svg"><path fill-rule="evenodd" clip-rule="evenodd" d="M44 5.524a.99.99 0 0 0-.737-.96c-7.61-1.996-13.666-2.068-19.477-.047-.62.216-1.286-.234-1.286-.891 0-.378.23-.72.583-.855 6.903-2.627 13.31-2.273 22.192.271a1 1 0 0 1 .725.962V39a1 1 0 0 1-1.272.962c-2.304-.65-6.71-.998-11.228-.998-3.794 0-7.35-.08-9.756.279-.631.094-1.244-.377-1.244-1.015 0-.43.285-.812.707-.899 2.564-.527 6.153-.365 10.293-.365 3.327 0 6.713.184 9.303.57.623.094 1.197-.38 1.197-1.01v-31Z" fill="#000"/><path fill-rule="evenodd" clip-rule="evenodd" d="M2 5.563a.99.99 0 0 1 .737-.96c7.61-1.996 13.666-2.067 19.477-.047.62.216 1.286-.233 1.286-.89 0-.379-.23-.72-.583-.855C16.014.183 9.607.538.725 3.08A1 1 0 0 0 0 4.044V39.04a1 1 0 0 0 1.272.962c2.304-.65 6.71-.998 11.228-.998 3.794 0 7.35-.081 9.756.278.631.095 1.244-.376 1.244-1.014a.904.904 0 0 0-.707-.9c-2.564-.527-6.153-.364-10.293-.364-3.327 0-6.713.184-9.303.57-.623.093-1.197-.38-1.197-1.01v-31Z" fill="#000"/><path d="M23 4v34.5M19 14H5M19 20H5M19 26H5" stroke="#000" stroke-width="2"/><circle cx="39.9" cy="19.9" r="8.9" fill="#0158DB"/><mask id="a" style="mask-type:alpha" maskUnits="userSpaceOnUse" x="34" y="17" width="12" height="12"><path d="M45 28.5a4.51 4.51 0 0 0-4.48-4h-1.04a4.51 4.51 0 0 0-4.48 4" stroke="#fff" stroke-width="1.5"/><circle cx="40" cy="20" r="2.25" stroke="#fff" stroke-width="1.5"/></mask><g mask="url(#a)"><circle cx="39.9" cy="19.9" r="8.9" fill="#fff"/></g></svg>